Otto er et nesehorn 2013
Sjangre Barn og familie, Internasjonalt, Komedie, Tegnet/Animert

Den unge gutten Topper har en livlig fantasi og finner på mange sprøe historier. Men til og med han blir overrasket når han finner en magisk penn. Den vekker de tingene Topper tegner til liv, til og med det gule neshornet som han tegner på tapetet i stuen. Men det er ikke helt lett å ha et stort og sultent dyr fra savannen løpende rundt i en leilighet i andre etasje. Skuespillere 
 Regissør Kenneth Kainz
 Originaltittel Otto er et næsehorn
 Varighet DVD: 1 tim 16 min 
 Aldersgrense 
 Filmsamlinger Basert på bok
 Sjangre Barn og familie, Internasjonalt, Komedie, Tegnet/Animert
 Releasedato Produksjonsår: 2013

 General
 Complete name                            : D:Otto er et neshorn-DVDrip norsk tale- Robban.mp4
 Format                                   : MPEG-4
 Format profile                           : Base Media / Version 2
 Codec ID                                 : mp42
 File size                                : 849 MiB
 Duration                                 : 1h 12mn
 Overall bit rate mode                    : Variable
 Overall bit rate                         : 1 631 Kbps
 Encoded date                             : UTC 2013-06-14 21:29:51
 Tagged date                              : UTC 2013-06-14 21:33:50

 Video
 ID                                       : 1
 Format                                   : AVC
 Format/Info                              : Advanced Video Codec
 Format profile                           : Main@L3.0
 Format settings, CABAC                   : Yes
 Format settings, ReFrames                : 1 frame
 Format settings, GOP                     : M=1, N=15
 Codec ID                                 : avc1
 Codec ID/Info                            : Advanced Video Coding
 Duration                                 : 1h 12mn
 Bit rate mode                            : Variable
 Bit rate                                 : 1 500 Kbps
 Maximum bit rate                         : 2 250 Kbps
 Width                                    : 720 pixels
 Height                                   : 390 pixels
 Display aspect ratio                     : 1.85:1
 Frame rate mode                          : Constant
 Frame rate                               : 25.000 fps
 Color space                              : YUV
 Chroma subsampling                       : 4:2:0
 Bit depth                                : 8 bits
 Scan type                                : Progressive
 Bits/(Pixel*Frame)                       : 0.214
 Stream size                              : 781 MiB (92%)
 Encoded date                             : UTC 2013-06-14 21:29:51
 Tagged date                              : UTC 2013-06-14 21:33:42
 Color primaries                          : BT.601 NTSC
 Transfer characteristics                 : BT.709
 Matrix coefficients                      : BT.601

 Audio
 ID                                       : 2
 Format                                   : AAC
 Format/Info                              : Advanced Audio Codec
 Format profile                           : LC
 Codec ID                                 : 40
 Duration                                 : 1h 12mn
 Bit rate mode                            : Variable
 Bit rate                                 : 128 Kbps
 Maximum bit rate                         : 172 Kbps
 Channel(s)                               : 2 channels
 Channel positions                        : Front: L R
 Sampling rate                            : 48.0 KHz
 Compression mode                         : Lossy
 Stream size                              : 66.6 MiB (8%)
 Encoded date                             : UTC 2013-06-14 21:29:51
 Tagged date                              : UTC 2013-06-14 21:33:31
